<svg viewBox="0 0 64 44" xmlns="http://www.w3.org/2000/svg" xml:space="preserve" style="fill-rule:evenodd;clip-rule:evenodd;stroke-linejoin:round;stroke-miterlimit:2"><path d="M22.2 30.776h19.6v4.17H22.2zm0-10.872h19.6v4.17H22.2zm0-10.873h19.6v4.172H22.2zm-4 .172L6.943 20.46A2.155 2.155 0 0 0 6.308 22c-.001.576.228 1.13.635 1.539L18.2 34.797v-6.162l-6.638-6.644 6.638-6.632V9.203zm27.6 0L57.058 20.46c.409.408.639.962.635 1.54a2.178 2.178 0 0 1-.636 1.539L45.8 34.797v-6.162l6.639-6.644-6.639-6.632V9.203z"/></svg>