<svg viewBox="0 0 726 332" xmlns="http://www.w3.org/2000/svg" xml:space="preserve" style="fill-rule:evenodd;clip-rule:evenodd;stroke-linejoin:round;stroke-miterlimit:2"><ellipse cx="512.237" cy="308.203" rx="148.167" ry="113.602" style="fill:url(#a)" transform="matrix(-1 0 0 1 715.691 -164.799)"/><ellipse cx="512.237" cy="308.203" rx="148.167" ry="113.602" style="fill:url(#b)" transform="matrix(-1.12054 0 0 1.38425 910.936 -269.38)"/><path d="M580.659 503.003c-24.633-22.814-39.959-54.787-39.959-90.159 0-69.248 58.736-125.469 131.083-125.469 72.346 0 131.082 56.221 131.082 125.469 0 32.458-6.434 55.584-27.593 77.867-10.165 10.705-19.262 12.292-38.052 12.292H580.659z" style="fill:url(#c)" transform="matrix(-1.10947 0 0 1.10947 890.758 -226.57)"/><path d="M323.379 503.003c-3.392-9.802-5.147-20.962-5.147-33.636 0-85.612 71.804-155.117 160.247-155.117 88.443 0 160.248 69.505 160.248 155.117 0 12.625-1.87 23.795-5.476 33.636H323.379z" style="fill:url(#d)" transform="matrix(-1 0 0 1 802.865 -171.504)"/><path d="M185.67 503.003c-15.574-21.164-24.702-46.841-24.702-74.508 0-72.386 62.489-131.155 139.458-131.155s139.459 58.769 139.459 131.155c0 27.667-9.129 53.344-24.703 74.508H185.67z" style="fill:url(#e)" transform="matrix(-1.20422 0 0 1.20422 840.44 -274.227)"/><path d="M125.541 503.105c-34.974 0-48.641-23.056-48.641-42.038 0-53.957 41.887-89.289 93.15-89.289 51.263 0 92.882 42.124 92.882 94.01 0 13.215-2.188 25.797-7.061 37.215 0 0-118.366.102-130.33.102z" style="fill:url(#f)" transform="matrix(-1.15125 0 0 1.15125 814.496 -247.597)"/><defs><linearGradient id="a" x1="0" y1="0" x2="1" y2="0" gradientUnits="userSpaceOnUse" gradientTransform="rotate(121.845 221.669 250.655) scale(132.9552)"><stop offset="0" style="stop-color:#eef1ff;stop-opacity:1"/><stop offset="1" style="stop-color:#c0cbff;stop-opacity:1"/></linearGradient><linearGradient id="b" x1="0" y1="0" x2="1" y2="0" gradientUnits="userSpaceOnUse" gradientTransform="matrix(-61.2428 92.0704 -102.711 -44.769 535.647 216.133)"><stop offset="0" style="stop-color:#eef1ff;stop-opacity:1"/><stop offset="1" style="stop-color:#c0cbff;stop-opacity:1"/></linearGradient><linearGradient id="c" x1="0" y1="0" x2="1" y2="0" gradientUnits="userSpaceOnUse" gradientTransform="rotate(122.225 264.745 363.178) scale(120.6729)"><stop offset="0" style="stop-color:#eef1ff;stop-opacity:1"/><stop offset="1" style="stop-color:#c0cbff;stop-opacity:1"/></linearGradient><linearGradient id="d" x1="0" y1="0" x2="1" y2="0" gradientUnits="userSpaceOnUse" gradientTransform="matrix(-80.878 91.2066 -111.984 -99.3024 546.791 337.303)"><stop offset="0" style="stop-color:#eef1ff;stop-opacity:1"/><stop offset="1" style="stop-color:#c0cbff;stop-opacity:1"/></linearGradient><linearGradient id="e" x1="0" y1="0" x2="1" y2="0" gradientUnits="userSpaceOnUse" gradientTransform="scale(-142.3765 142.3765) rotate(66.517 -3.173 -.654)"><stop offset="0" style="stop-color:#eef1ff;stop-opacity:1"/><stop offset="1" style="stop-color:#c0cbff;stop-opacity:1"/></linearGradient><linearGradient id="f" x1="0" y1="0" x2="1" y2="0" gradientUnits="userSpaceOnUse" gradientTransform="matrix(-53.5147 92.8017 -102.37 -59.0322 199.355 395.453)"><stop offset="0" style="stop-color:#eef1ff;stop-opacity:1"/><stop offset="1" style="stop-color:#c0cbff;stop-opacity:1"/></linearGradient></defs></svg>