<svg viewBox="0 0 100 100" xmlns="http://www.w3.org/2000/svg" fill-rule="evenodd" clip-rule="evenodd" stroke-linejoin="round" stroke-miterlimit="1.5"><path fill="none" d="M0 0h100v100H0z"/><path d="M5.492 63.902c-1.539-2.426-2.587-11.465-1.593-13.076.352.369 4.353-.86 4.732-.54 24.519 20.777 51.057 22.859 83.889.676.892-.603 2.312-1.948 3.567-.637.892 2.137 2.479 6.187 2.439 10.011-.858 3.046-4.013 8.107-6.554 10.666.091-3.033-1.654-9.054-2.787-11.919-1.169 1.053-4.237 3.361-5.557 4.507 2.021 6.439 3.704 10.343 4.342 13.77-1.418 2.716-6.433 6.382-8.172 6.837-.695-3.519-3.589-12.626-4.791-16.545-1.721 1.014-7.746 2.85-7.739 2.967.294 5.01 1.269 11.753 3.159 17.431-2.331 1.521-7.403 2.045-10.644 2.233-1.477-3.05-1.902-13.039-2.221-17.74-1.768.532-6.838.5-8.865.679-.682 5.829-.99 11.62-.47 17.094-2.634-.024-8.846-1.614-10.179-2.127-.34-.886.675-13.622.808-16.23-1.442-.074-7.906-2.268-8.801-2.513-.501 3.058-1.153 12.152-.578 14.598-1.516-.601-8.651-6.109-9.148-6.3-.617-3.543-.097-9.17.23-12.361-.919-.313-5.78-3.571-6.551-4.211-.87 8.919-.1 11.254.106 11.869-1.502-1.338-7.45-7.873-8.622-9.139z" fill="#333"/><path d="M50.026 26.996c23.346 0 42.3 24.595 42.3 24.595s-18.954 17.592-42.3 17.592c-23.347 0-42.301-17.592-42.301-17.592s18.954-24.595 42.301-24.595z" fill="none" stroke="#333" stroke-width="8"/></svg>