<svg viewBox="0 0 100 100" xmlns="http://www.w3.org/2000/svg" fill-rule="evenodd" clip-rule="evenodd" stroke-linejoin="round" stroke-miterlimit="2"><path fill="none" d="M0 0h100v100H0z"/><circle cx="50" cy="49.997" r="24.82" fill="#333"/><path d="M2.239 51.966c0 1.64 1.33 2.971 2.971 2.971h13.417a2.971 2.971 0 0 0 2.971-2.971v-3.823a2.97 2.97 0 0 0-2.971-2.971H5.21a2.97 2.97 0 0 0-2.971 2.971v3.823zm76.176 0a2.972 2.972 0 0 0 2.971 2.971h13.418a2.971 2.971 0 0 0 2.971-2.971v-3.823a2.97 2.97 0 0 0-2.971-2.971H81.386a2.971 2.971 0 0 0-2.971 2.971v3.823zM17.581 85.183a2.972 2.972 0 0 0 4.202 0l9.487-9.488a2.97 2.97 0 0 0 0-4.201l-2.703-2.703a2.97 2.97 0 0 0-4.202 0l-9.487 9.487a2.972 2.972 0 0 0 0 4.202l2.703 2.703zm53.865-53.865a2.972 2.972 0 0 0 4.202 0l9.487-9.488a2.969 2.969 0 0 0 0-4.201l-2.703-2.704a2.97 2.97 0 0 0-4.201 0l-9.488 9.488a2.972 2.972 0 0 0 0 4.202l2.703 2.703zM14.878 17.629a2.97 2.97 0 0 0 0 4.201l9.487 9.488a2.972 2.972 0 0 0 4.202 0l2.703-2.703a2.972 2.972 0 0 0 0-4.202l-9.487-9.488a2.972 2.972 0 0 0-4.202 0l-2.703 2.704zm53.865 53.865a2.97 2.97 0 0 0 0 4.201l9.488 9.488a2.97 2.97 0 0 0 4.201 0l2.703-2.703a2.97 2.97 0 0 0 0-4.202l-9.487-9.487a2.97 2.97 0 0 0-4.202 0l-2.703 2.703zM48.095 2.286a2.97 2.97 0 0 0-2.971 2.971v13.417a2.97 2.97 0 0 0 2.971 2.971h3.823a2.97 2.97 0 0 0 2.971-2.971V5.257a2.97 2.97 0 0 0-2.971-2.971h-3.823zm0 76.177a2.97 2.97 0 0 0-2.971 2.971v13.417a2.97 2.97 0 0 0 2.971 2.971h3.823a2.97 2.97 0 0 0 2.971-2.971V81.434a2.97 2.97 0 0 0-2.971-2.971h-3.823z" fill="#333"/></svg>