<svg viewBox="0 0 2000 2000" xmlns="http://www.w3.org/2000/svg" xml:space="preserve" style="fill-rule:evenodd;clip-rule:evenodd;stroke-linejoin:round;stroke-miterlimit:2"><path d="M1514.4 1322.9c-12.9-7.3-28.1-11.2-43.7-11.2l-444.8-.9-444.8.9c-15.6 0-30.8 3.9-43.7 11.2l-280 158.1c-10.9 6.1-5.7 20.4 7.4 20.4H1787c13.1 0 18.3-14.3 7.4-20.4l-280-158.1z" style="fill:url(#a);fill-rule:nonzero"/><path d="M1308 1318.9c-.6-2.5-1.2-5.1-1.8-7.6l-42-.1c14.9 62.4 31.8 124.4 50.7 185.9.4 1.4.9 2.9 1.3 4.3h42.7c-18.9-60.3-35.9-121.1-50.9-182.5zm-164.3 9.1.3-17-40.9-.1c-1.1 60-.2 120.1 2.7 180.1.2 3.5.4 7 .5 10.5h41c-3.1-57.8-4.3-115.6-3.6-173.5zm365.6 119.7c-31.1-41.1-61-83.1-89.7-125.7-2.3-3.4-4.6-6.9-6.9-10.3l-48.4-.1c42.6 65.1 87.9 128.5 135.9 190h50.8c-14.1-17.9-28.1-35.8-41.7-53.9zm-550.5-136.8c-4.5 59-8.9 117.9-13.4 176.9-.3 4.6-.7 9.1-1 13.7h40.9c4.3-56.8 8.6-113.7 12.9-170.5.5-6.7 1-13.4 1.5-20.2l-40.9.1zm-306.7 60.7c17.6-19.6 34.5-39.7 51-60.1l-51.7.1c-.6.8-1.3 1.5-1.9 2.3-7.4 8.8-15 17.5-22.6 26.1-14.9 16.8-30.3 33.2-46 49.2-32.2 32.7-66 64-101.5 93.5-7.6 6.4-15.4 12.6-23.1 18.8h62.4c47.3-40.4 92-83.8 133.4-129.9zm232.6-17.2c8.5-14.5 16.9-28.9 25.4-43.4l-46.9.1c-33.1 56.6-66.2 113.2-99.3 169.7-4 6.9-8 13.8-12.1 20.6h46.9c28.7-48.9 57.3-98 86-147z" style="fill:#fffdfd;fill-rule:nonzero"/><path d="M660.2 670.2c-3.3-17-16.9-29.1-29.4-40-1.9-1.7-4.4-.5-5.2 1.3-14.6.8-29.8 16.2-30.7 29.6-.5 8.2 1.3 16.5 3.4 24.4 1.7 6.4 4 13 8.6 18 9.9 10.7 28.4 7.9 39.7 1.2 12.3-7.1 16.2-21.3 13.6-34.5zm-28.8 129.5c-8.2-8-23.3-14.4-23.2-27.7 0-3.6-4.6-4.3-6.2-1.9-1-.3-2.2-.1-3.2.8-3.6 3.4-9.4 1.6-13.7.8-4.7-.9-9.3-1.4-14.1-.5-9.1 1.8-16.8 8.3-21.9 15.9-6.2 9.2-8.1 20.5-8.4 31.3-.2 5.8.1 11.5.5 17.3.3 5.4.6 11.2 3.6 15.9 2.5 3.9 6.8 6.9 11.6 6.8 4.9-.1 8.7-3.2 12.6-5.8 10.4-6.7 22 .3 32.1 3.9 9.9 3.5 20.2 3.6 29-2.7 7.7-5.5 12.5-14 13.4-23.4 1-11.2-4.1-22.8-12.1-30.7z" style="fill:#151b35;fill-rule:nonzero"/><path d="M799.8 1183.9c2.9-1.9 215.9-207.9 243-212.1 41.8-6.5 430.3 21 430.3 21l-270.7 56.3-165.9 27.5-159.1 200.5-77.6-93.2z" style="fill:#5b94cb;fill-rule:nonzero"/><path d="M578.5 801.6s-10.2 63.8 10.2 78.5c20.3 14.7 116.9 49.2 124.6 85.4 7.6 36.2-3.8 70.7 5.1 94 8.9 23.3 95.8 142.1 122.4 133.7 26.7-8.4 190.7-212.2 225.6-211.5 35 .6 252.1 3.9 329.6-3.9 77.5-7.8 139.6-30.2 191.7-37.3 52.1-7.1 79.9-5.8 81.8 7.8 1.9 13.6 2.8 22.6-37.8 34.9-40.7 12.3-83.5 17.4-88 38.8-4.4 21.3-25 59.7-57.4 35.1s-29-35.7-49.4-28.5c-20.3 7.1-201.7 78.9-253.2 76-49.4-2.8-76.7-18.6-84.9-9.5-8.2 9.1-89.6 136.5-107.4 172.1-17.8 35.6-66.8 133.6-135.4 136.8-68.6 3.2-106.8 8.4-136-33-29.2-41.4-45.8-127.4-83.3-168.2-37.5-40.7-115-138.4-132.8-177.9-17.8-39.5-24-87.5-17-117.3 7-29.8 26.5-76.7 28.4-150.5l63.2 44.5z" style="fill:url(#b);fill-rule:nonzero"/><path d="M636.5 694.8c-2.1-55.1-50.1-71.3-50.1-71.3-116.6 16.7-97 102.8-79.5 148.8 17.5 46 62.7 47.2 96.5 47.1 20.4-.1 29.1-25.7 32.4-60.1 3.7-.7 17.6-5.3 17.5-9.3-.1-3.7-11.2-23.2-15.3-30.3-.7-8.3-1.2-16.7-1.5-24.9z" style="fill:url(#c);fill-rule:nonzero"/><path d="M718.3 1059.5c-8.9-23.3 2.5-57.8-5.1-94-3-14.5-20.3-28.6-41.2-41.4-28.7 13-47.9-13.9-104.2-31.4-3.7-1.1-7.2-2-10.6-2.7-25.4-5.2-51.6 6.2-64.3 28.8-5.4 9.7-8.8 22.1-7.4 37.8.1 1.5.2 2.9.2 4.1 2.8 21.3 8.9 43.9 18.1 64.3 17.8 39.5 95.3 137.1 132.8 177.9 3.2 3.5 6.2 7.2 9.1 11.3 88.8-20.6 126.8-76.2 126.8-76.2-26-31.6-49.8-66.9-54.2-78.5zm-185.9-39.8c-47.1-58.3-12.6-97-12.6-97l135.9 110.5s-76 44.9-123.3-13.5z" style="fill:#fffdfd;fill-rule:nonzero"/><path d="M512.8 934.5c3.3-7.6 7-11.8 7-11.8l5.9 4.8c.3-1 .5-2 .5-3 0-5.8-4.7-10.4-10.4-10.4-5.8 0-10.4 4.7-10.4 10.4-.1 4.7 3.1 8.7 7.4 10z" style="fill:#f6b734;fill-rule:nonzero"/><circle cx="576.8" cy="1092.1" r="10.4" style="fill:#f6b734"/><path d="M526.2 1021.3c2.2 0 4.3-.7 6-1.9-4.8-5.9-8.7-11.6-11.9-17.1-2.7 1.9-4.5 5-4.5 8.6 0 5.7 4.6 10.4 10.4 10.4zm92.3 148.9c-3 0-5.6 1.2-7.5 3.2 4.7 5.6 9.2 10.9 13.5 15.8 2.7-1.9 4.5-5 4.5-8.5 0-5.9-4.7-10.5-10.5-10.5z" style="fill:#f6b734;fill-rule:nonzero"/><circle cx="720.3" cy="1124" r="10.4" style="fill:#f6b734"/><circle cx="660.3" cy="1081.7" r="10.4" style="fill:#f6b734"/><circle cx="670.8" cy="1144.8" r="10.4" style="fill:#f6b734"/><path d="M692.9 1188.7c-5.8 0-10.4 4.7-10.4 10.4 0 1.2.2 2.3.6 3.4 6.7-2.7 13-5.5 19-8.5-1.9-3.1-5.3-5.3-9.2-5.3z" style="fill:#f6b734;fill-rule:nonzero"/><circle cx="682.5" cy="965.5" r="10.4" style="fill:#f6b734"/><path d="M655.7 1159.6c.6-4.5 0-10-5.2-11.2-2.8-.7-5.6.6-8.5-.1-3.3-.8-5.7-3.4-6.6-6.5-.8-2.8-5.2-1.6-4.4 1.2 1.3 4.7 5 8.5 9.8 9.7 2.7.7 5-.2 7.7 0 3.6.3 3.1 4.2 2.7 6.9-.4 2.8 4.1 2.8 4.5 0zm-100-95.7c4.1-4.4.7-10.2-4.3-11.8-3.3-1-7-.3-10.2-1.5-3.6-1.4-5.6-4.8-6.2-8.4-.5-2.9-4.9-1.7-4.4 1.2.8 4.6 3.5 8.8 7.7 10.9 2.3 1.2 4.8 1.4 7.3 1.6 1.7.1 10.3 1.2 6.9 4.8-2 2.1 1.2 5.3 3.2 3.2zm68.7 13.9c3-1.8 5.2-4.8 5.9-8.3.4-2.1.3-4.2.5-6.3.1-1.7 1.7-7.6 4.5-5 2.1 2 5.3-1.2 3.2-3.2-2.1-1.9-5-2.4-7.6-1-3.2 1.7-4.3 5.3-4.6 8.7-.4 4.7-.1 9.5-5.1 11.7-4.3 1.9-8.7-.7-10.5-4.7-1.2-2.7-5.1-.4-3.9 2.3 2.9 6.6 11.2 9.6 17.6 5.8zm8-133.5c-1.5 2.2-1.9 4.8-2.5 7.4-.3 1.3-2.7 8.6-4.9 5-1.5-2.5-5.5-.2-3.9 2.3 2.8 4.5 9 3.3 11.5-1 1.6-2.8 1.6-5.9 2.5-8.9 1.2-3.9 4.8-5.8 8.7-5.3 2.9.4 2.9-4.2 0-4.5-4.3-.6-8.8 1.3-11.4 5zm123 186.3c-7.7 1.1-13.3 7.6-15.7 14.7-1 2.8 3.4 3.9 4.4 1.2 1.5-4.4 4.5-8.5 8.8-10.5 5.3-2.4 10.2.3 15.3 1.8 1.3.4 2.6.7 4 .9.4-.5.5-.7.5-.7-1.3-1.5-2.5-3.1-3.8-4.6-.2-.1-.4-.1-.6-.2-4.3-1.5-8.4-3.3-12.9-2.6zm-104 55.7c-1.7-2.4-5.6-.1-3.9 2.3 4.4 6.1-3.2 12-8.4 16.8.9 1.1 1.9 2.2 2.8 3.4 1.1-1.2 2.3-2.3 3.6-3.4 5.1-4.6 10.8-12.2 5.9-19.1zM500.1 934.9c-3.9 2.5-6.6 6.4-7.3 11-.4 2.4 0 4.6.6 7 .4 1.5 2.6 8.8-1.4 7.3-2.7-1-3.9 3.4-1.2 4.4 5.3 1.9 8.7-3.6 8.1-8.2-.3-3-1.9-5.8-1.8-8.9.2-3.6 2.2-6.7 5.2-8.6 2.6-1.7.3-5.6-2.2-4zM705 977.4c.4-2.9-4.2-2.9-4.5 0-.8 6.5 5.8 10.3 11.6 9.4 1.3-.2 2.5-.6 3.7-1.1-.1-1.6-.2-3.3-.3-5-3.8 2-11.3 3.1-10.5-3.3zM579.4 922c0-3.3 1.8-6.3 4.9-7.6 3.6-1.4 6.7.2 9.7 2.1 4.3 2.8 9.6 5.6 14.5 2.4 2.4-1.6.2-5.5-2.3-3.9-3.9 2.6-8.1-1.3-11.3-3.3-2.8-1.7-5.8-2.7-9-2.4-6.5.7-10.9 6.2-11 12.6-.1 3.1 4.4 3.1 4.5.1zm115.1 174.8c3.9-4.4 7-9.6 5.4-15.6-.8-2.8-5.1-1.6-4.4 1.2 2.3 8.3-8.3 13.8-11.3 20.6-2.5 5.6-1 12.4 5.1 14.7 2.7 1 3.9-3.3 1.2-4.4-3.2-1.2-3.5-5.2-2.4-8 1.2-3.3 4-5.8 6.4-8.5zm30.1 73.9c-6.2.5-14.4.4-15.6-7.4-.4-2.9-4.8-1.7-4.4 1.2 1.4 8.9 10.7 11.5 18.4 10.8 2.1-.2 4.3-.6 6.3-.2 1 .2 1.8.6 2.4 1.1 1.3-.9 2.5-1.8 3.8-2.7-2.7-2.7-6.9-3.1-10.9-2.8zm1.8 9.4c.8-.5 1.5-1 2.3-1.5-1.1-.3-2 .5-2.3 1.5zm-47-238.1c.5-5.6 8.2-.7 10.2.8 2.6 1.9 5.2 3.5 8.2 4.6 1.8.6 3.7.9 5.5.9-2-2.2-4.3-4.5-6.8-6.7-2.7-1.5-5.3-3.5-7.7-4.8-5.4-3-13.3-2.1-13.9 5.3-.3 2.8 4.3 2.7 4.5-.1zm-92 202.7c1 1.3 2.1 2.6 3.1 3.8 2.5-.9 4.7-2.8 6-5.7 1.9-4.2.5-8.3-1.2-12.2-1-2.3-2.4-5-1.7-7.6.8-2.7 3.5-4 6.2-3.7 2.9.3 2.9-4.2 0-4.5-8-.8-12.5 7-10.1 14 1.3 3.8 4.6 8.1 2.6 12.2-1 2.4-2.9 3.5-4.9 3.7z" style="fill:#a36da7;fill-rule:nonzero"/><path d="M793.6 1161.7c-33.1 75.4-127.1 89.2-127.1 89.2 5.7 12.4 11 25.5 16.1 38.6 10 3.3 18.8 6 19.4 5.7 1.3-.6 95-92.7 114.6-112-7.1-5.5-14.9-13-23-21.5z" style="fill:#fffdfd;fill-rule:nonzero"/><path d="M1066.4 981.6c-35-.6-198.9 203.1-225.6 211.5-8.3 2.6-22.2-7-37.9-22.1-10.3 21.4-44.7 76.2-130.8 92.5 16.5 38.7 29.7 81.7 47.9 107.5 29.2 41.4 67.4 36.2 136 33 68.6-3.2 117.6-101.5 135.4-137.1 17.8-35.6 99.1-163 107.4-172.1 8.3-9.1 35.5 6.8 84.9 9.5 45 2.5 189.4-52 238.5-70.5 1.5-15.9-.1-36.1-10.4-57.9-5.2.7-10.5 1.3-15.9 1.8-77.5 7.8-294.6 4.6-329.5 3.9z" style="fill:url(#d);fill-rule:nonzero"/><path d="M1395.8 1043.7c10.4-3.8 19.3-7.2 26.4-9.9 1.5-15.9-.1-36.1-10.4-57.9-5.2.7-10.5 1.3-15.9 1.8-3.4.3-7 .7-10.9 1 6 12.9 15.9 39.5 10.8 65z" style="fill:#fffdfd;fill-rule:nonzero"/><path d="M716.5 1244.8c20.9 9.8 27.9 34.4 39.4 52.5 6.4 10.1 14.4 18.7 24.9 24.6 10.6 6 22.6 9.1 34.7 9.9 57 3.4 98.7-46.2 126.8-89.5 31.2-48.2 54.3-102.2 94.7-143.9 18.4-19 40.2-35.2 65.3-44.1 29.6-10.4 61.2-8.8 92.1-7.5 31.2 1.3 62.2.4 93.2-4 31.3-4.4 62.1-12 91.8-22.7 7.1-2.6 14.2-5.3 21.2-8.2 3.8-1.6 2.1-7.8-1.7-6.2-57.8 23.9-120.2 36-182.7 35.3-31.2-.4-62.7-4.1-93.7 1.4-26.2 4.6-49.9 16.9-70.5 33.5-44 35.6-70 86.7-97.9 134.7-14.7 25.3-30.4 50.4-50.4 71.9-18 19.4-40.5 36.4-67 41.5-24 4.6-51.3-1.1-67.9-20-14.8-16.8-20-40.2-36.2-55.9-3.7-3.6-8-6.6-12.7-8.8-3.8-1.8-7.1 3.7-3.4 5.5z" style="fill:#fffdfd;fill-rule:nonzero"/><path d="M772.6 1213.6c15.4 33.9 20.7 71.5 13.9 108.1-.8 4.1 5.5 5.8 6.2 1.7 7.2-38.5 1.6-77.5-14.5-113.1-1.8-3.7-7.3-.4-5.6 3.3z" style="fill:#fffdfd;fill-rule:nonzero"/><path d="M519.8 922.7s31-36.9 85.4 4.9c54.3 41.7 152.3 114.5 165.9 122.2 13.6 7.8 93.1 26.2 150.4 46.6 57.2 20.4 107.7 25.2 140.7 24.3 33-1 65 19.4 71.8 23.3 6.8 3.9-1 35.9-15.5 36.9-14.6 1-63.1 14.6-87.3 3.9-24.3-10.7-40.7-27.5-67.9-25.9-27.2 1.6-103.8-13.9-142.6-25.5s-124.2-35.9-146.5-47.5c-22.3-11.6-118.4-54.3-142.6-78.6-24.4-24.4-27.3-65.2-11.8-84.6z" style="fill:url(#e);fill-rule:nonzero"/><path d="M632.6 631.6c-24.1-19-58.1-26.8-88.2-21.7-31.1 5.3-52.2 33.5-66.7 59.3-7.6 13.5-11.4 29.6-21.8 41.4-9 10.2-26.4 16.7-26.8 32.3-.2 7.9 4.4 14.6 6.6 21.9 2.3 7.4-.5 12.7-5.1 18.5-3.9 4.9-8.4 10-9.1 16.5-.8 7.2 3.5 12.9 7.8 18.3 2.6 3.2 5 6.4 6.1 10.5 1.1 3.9 1.3 8 1.8 12 1 7.8 3.9 15.4 11.8 18.5 8.6 3.4 17.7.2 25.6-3.6 9.9-4.8 19.8-9 30.9-5.2.5.2 1 .2 1.4.2 8.2 2.6 17.5.9 23.7-5.4 6.9-6.9 8.2-16.9 5.1-25.9-2.8-7.8-9.9-16.5-8.5-25.2 1.5-9.1 13.1-12.6 19.5-17.6 7.5-5.9 12.7-14.9 14.2-24.4 1.7-10.7-2-20-5.1-30.1-1.6-5.1-2.7-10.5-1.6-15.8 1-4.6 3.5-8.8 6.6-12.3 7.1-7.9 16.9-12.3 26.7-15.9 11.4-4.2 23.2-8 32.5-16 8-6.8 13.9-16.5 13.5-27.2.4-.9.3-2.1-.9-3.1z" style="fill:#1c2246;fill-rule:nonzero"/><defs><linearGradient id="b" x1="0" y1="0" x2="1" y2="0" gradientUnits="userSpaceOnUse" gradientTransform="rotate(-135.047 935.926 373.35) scale(962.362)"><stop offset="0" style="stop-color:#ff956e;stop-opacity:1"/><stop offset="1" style="stop-color:#e87054;stop-opacity:1"/></linearGradient><linearGradient id="c" x1="0" y1="0" x2="1" y2="0" gradientUnits="userSpaceOnUse" gradientTransform="rotate(-135.047 483.856 263.204) scale(185.823)"><stop offset="0" style="stop-color:#ff956e;stop-opacity:1"/><stop offset="1" style="stop-color:#e87054;stop-opacity:1"/></linearGradient><linearGradient id="d" x1="0" y1="0" x2="1" y2="0" gradientUnits="userSpaceOnUse" gradientTransform="rotate(86.92 -104.844 1150.963) scale(178.61)"><stop offset="0" style="stop-color:#8aadd7;stop-opacity:1"/><stop offset="1" style="stop-color:#5b94cb;stop-opacity:1"/></linearGradient><linearGradient id="e" x1="0" y1="0" x2="1" y2="0" gradientUnits="userSpaceOnUse" gradientTransform="rotate(-135.047 778.372 423.192) scale(608.847)"><stop offset="0" style="stop-color:#ff956e;stop-opacity:1"/><stop offset="1" style="stop-color:#e87054;stop-opacity:1"/></linearGradient><radialGradient id="a" cx="0" cy="0" r="1" gradientUnits="userSpaceOnUse" gradientTransform="matrix(678.54 0 0 569.293 786.739 1406.13)"><stop offset="0" style="stop-color:#944e9b;stop-opacity:1"/><stop offset="1" style="stop-color:#a36da7;stop-opacity:1"/></radialGradient></defs></svg>